<svg xmlns="http://www.w3.org/2000/svg" width="20" height="20" viewBox="0 0 20 20"><rect width="20" height="20" fill="#0bf" opacity="0"/><rect width="14" height="2" rx="1" transform="translate(3 15)" fill="#0bf"/><rect width="4" height="2" rx="1" transform="translate(3 17) rotate(-90)" fill="#0bf"/><rect width="4" height="2" rx="1" transform="translate(15 17) rotate(-90)" fill="#0bf"/><path d="M10.682,14.167a.678.678,0,0,1-.427-.15l-2.946-2.35a.905.905,0,0,1-.177-1.158.733.733,0,0,1,.479-.343.671.671,0,0,1,.552.143L10.682,12.3l2.5-2.133a.682.682,0,0,1,1.031.167A.908.908,0,0,1,14.07,11.5L11.124,14a.682.682,0,0,1-.442.167Z" transform="translate(-0.682 -1.667)" fill="#0bf"/><path d="M11.833,11.333A.833.833,0,0,1,11,10.5V3.833a.833.833,0,0,1,1.667,0V10.5A.833.833,0,0,1,11.833,11.333Z" transform="translate(-1.833 -0.5)" fill="#0bf"/></svg>