<svg xmlns="http://www.w3.org/2000/svg" width="89.711" height="78.651" viewBox="0 0 89.711 78.651"><g transform="translate(-226.755 -440)"><g transform="translate(36 13.573)"><path d="M2226.713,482s-17.459,13.015-9.194,17.353,34.094,4.338,42.254,0S2250.156,482,2250.156,482Z" transform="translate(-1985 -9.029)" fill="none" stroke="#00adec" stroke-width="7"/><g transform="translate(242 447.427)" fill="none" stroke="#00adec" stroke-linecap="round" stroke-width="7"><rect width="23" height="23" rx="5" stroke="none"/><rect x="-3.5" y="-3.5" width="30" height="30" rx="8.5" fill="none"/></g></g><path d="M2232,482s-25.545,19.043-13.452,25.39,49.885,6.348,61.823,0S2266.3,482,2266.3,482Z" transform="translate(-1985 3)" fill="#121720" stroke="#00adec" stroke-width="7"/><g transform="translate(247 447)" fill="#121720" stroke-linecap="round"><path d="M 29 37.5 L 5 37.5 C 0.3130800127983093 37.5 -3.5 33.68692016601563 -3.5 29 L -3.5 5 C -3.5 0.3130800127983093 0.3130800127983093 -3.5 5 -3.5 L 29 -3.5 C 33.68692016601563 -3.5 37.5 0.3130800127983093 37.5 5 L 37.5 29 C 37.5 33.68692016601563 33.68692016601563 37.5 29 37.5 Z" stroke="none"/><path d="M 5 0 C 2.238576889038086 0 0 2.238576889038086 0 5 L 0 29 C 0 31.76142311096191 2.238576889038086 34 5 34 L 29 34 C 31.76142311096191 34 34 31.76142311096191 34 29 L 34 5 C 34 2.238576889038086 31.76142311096191 0 29 0 L 5 0 M 5 -7 L 29 -7 C 35.61682510375977 -7 41 -1.616825103759766 41 5 L 41 29 C 41 35.61682510375977 35.61682510375977 41 29 41 L 5 41 C -1.616825103759766 41 -7 35.61682510375977 -7 29 L -7 5 C -7 -1.616825103759766 -1.616825103759766 -7 5 -7 Z" stroke="none" fill="#0bf"/></g></g></svg>