<svg 
 xmlns="http://www.w3.org/2000/svg"
 xmlns:xlink="http://www.w3.org/1999/xlink"
 width="4241px" height="1446px">
<path fill-rule="evenodd"  fill="rgb(255, 255, 255)"
 d="M1353.075,1445.059 L1353.075,1445.219 L91.273,1445.219 L91.273,1445.059 L0.000,1445.059 L0.000,0.711 L91.296,0.711 L182.887,0.711 L1261.621,0.711 L1353.075,0.711 L1444.508,0.711 L1444.508,1445.059 L1353.075,1445.059 ZM182.887,1262.332 L1261.621,1262.332 L1261.621,814.044 L987.620,814.044 L987.620,996.772 L456.182,996.772 L456.182,814.044 L182.887,814.044 L182.887,1262.332 ZM182.887,183.598 L182.887,631.158 L630.446,631.158 L630.446,813.885 L814.721,813.885 L814.721,631.158 L1261.621,631.158 L1261.621,183.598 L182.887,183.598 Z"/>
<path fill-rule="evenodd"  fill="rgb(255, 255, 255)"
 d="M3907.778,608.364 L3907.778,837.366 C3907.778,917.141 4057.943,939.666 4094.546,847.690 L4240.957,915.264 C4185.584,1023.195 4085.161,1064.491 4001.631,1064.491 C3871.175,1064.491 3739.781,988.470 3739.781,837.366 L3739.781,608.364 C3739.781,458.198 3871.175,381.239 4004.447,381.239 C4086.099,381.239 4184.645,415.964 4238.142,534.220 L4101.116,589.593 C4056.066,507.002 3907.778,525.773 3907.778,608.364 ZM3481.687,804.517 L3290.226,804.517 L3290.226,1055.105 L3121.290,1055.105 L3121.290,390.624 L3290.226,390.624 L3290.226,642.151 L3481.687,642.151 L3481.687,390.624 L3650.623,390.624 L3650.623,1055.105 L3481.687,1055.105 L3481.687,804.517 ZM2879.155,1055.105 L2709.281,1055.105 L2709.281,549.236 L2532.836,549.236 L2532.836,389.685 L3055.599,389.685 L3055.599,549.236 L2879.155,549.236 L2879.155,1055.105 ZM2299.155,390.624 L2467.152,390.624 L2467.152,1055.105 L2299.155,1055.105 L2299.155,390.624 ZM2255.981,1055.105 L2042.934,1055.105 L1873.059,817.657 L1867.428,825.165 L1867.428,1055.105 L1698.492,1055.105 L1698.492,390.624 L1867.428,390.624 L1867.428,636.520 L2047.627,390.624 L2256.920,390.624 L1994.130,711.602 L2255.981,1055.105 Z"/>
</svg>